<svg xmlns="http://www.w3.org/2000/svg" viewBox="0 0 24 24" id="react"><path d="M12 17c-6.729 0-12-2.196-12-5s5.271-5 12-5 12 2.196 12 5-5.271 5-12 5zm0-9C5.518 8 1 10.108 1 12s4.518 4 11 4 11-2.108 11-4-4.518-4-11-4z"></path><path d="M7.671 23.001c-.479 0-.91-.118-1.289-.354C4 21.165 4.812 15.329 8.229 9.363c2.51-4.383 5.745-7.621 8.242-8.251.833-.208 1.553-.128 2.147.24 2.382 1.483 1.57 7.319-1.847 13.285-2.51 4.383-5.745 7.621-8.242 8.251a3.553 3.553 0 0 1-.858.113zm-.761-1.203c.354.221.816.26 1.374.12 2.212-.558 5.274-3.684 7.618-7.777 3.31-5.778 3.809-10.93 2.188-11.938-.354-.221-.816-.261-1.374-.12-2.212.558-5.274 3.684-7.618 7.777-3.31 5.778-3.809 10.929-2.188 11.938z"></path><path d="M16.329 23.001c-.271 0-.557-.038-.858-.113-2.497-.63-5.732-3.868-8.242-8.251C3.812 8.671 3 2.835 5.382 1.353c.593-.368 1.315-.448 2.147-.24 2.497.63 5.732 3.868 8.242 8.251C19.188 15.33 20 21.166 17.619 22.648c-.38.235-.811.353-1.29.353zm1.025-.778h.01-.01zM6.677 2a1.42 1.42 0 0 0-.767.202C4.289 3.211 4.788 8.362 8.098 14.14c2.344 4.094 5.406 7.22 7.618 7.777.558.14 1.02.101 1.374-.12 1.621-1.009 1.122-6.16-2.188-11.938-2.344-4.094-5.406-7.22-7.618-7.777A2.481 2.481 0 0 0 6.677 2z"></path><path d="M12 14.5c-1.378 0-2.5-1.121-2.5-2.5s1.122-2.5 2.5-2.5 2.5 1.121 2.5 2.5-1.122 2.5-2.5 2.5zm0-4c-.827 0-1.5.673-1.5 1.5s.673 1.5 1.5 1.5 1.5-.673 1.5-1.5-.673-1.5-1.5-1.5z"></path></svg>